<svg xmlns="http://www.w3.org/2000/svg" viewBox="0 0 200 200">
  <defs>
    <linearGradient id="bg" x1="0" y1="0" x2="1" y2="1">
      <stop offset="0%" stop-color="#7C52F5"/>
      <stop offset="100%" stop-color="#1C1B24"/>
    </linearGradient>
  </defs>
  <rect width="200" height="200" rx="36" fill="url(#bg)"/>
  <!-- estrela grande -->
  <polygon points="100,32 111,76 157,76 121,102 135,146 100,120 65,146 79,102 43,76 89,76"
           fill="#A78BFF" opacity="0.95"/>
  <!-- estrela pequena esquerda -->
  <polygon points="36,48 40,62 54,62 43,70 47,84 36,76 25,84 29,70 18,62 32,62"
           fill="#FF6B9D" opacity="0.75"/>
  <!-- estrela pequena direita -->
  <polygon points="164,128 168,142 182,142 171,150 175,164 164,156 153,164 157,150 146,142 160,142"
           fill="#A78BFF" opacity="0.65"/>
  <circle cx="158" cy="48" r="7" fill="#FF6B9D" opacity="0.7"/>
  <circle cx="42" cy="152" r="5" fill="#A78BFF" opacity="0.55"/>
  <circle cx="170" cy="72" r="3" fill="#fff" opacity="0.4"/>
</svg>
