<svg xmlns="http://www.w3.org/2000/svg" viewBox="0 0 200 200">
  <defs>
    <linearGradient id="bg" x1="0" y1="0" x2="1" y2="1">
      <stop offset="0%" stop-color="#3D1F99"/>
      <stop offset="100%" stop-color="#c0396f"/>
    </linearGradient>
    <linearGradient id="glow" x1="0" y1="0" x2="0" y2="1">
      <stop offset="0%" stop-color="#FF6B9D" stop-opacity="1"/>
      <stop offset="100%" stop-color="#E84393" stop-opacity="0.8"/>
    </linearGradient>
  </defs>
  <rect width="200" height="200" rx="36" fill="url(#bg)"/>
  <path d="M100 155 C100 155 38 112 38 72 C38 50 55 38 76 46 C88 51 96 62 100 72 C104 62 112 51 124 46 C145 38 162 50 162 72 C162 112 100 155 100 155 Z" fill="url(#glow)"/>
  <path d="M100 140 C100 140 54 110 54 80 C54 66 64 58 76 62 C86 66 94 76 100 84 C106 76 114 66 124 62 C136 58 146 66 146 80 C146 110 100 140 100 140 Z" fill="#fff" opacity="0.15"/>
</svg>
